<svg xmlns="http://www.w3.org/2000/svg" xmlns:xlink="http://www.w3.org/1999/xlink" width="1200" zoomAndPan="magnify" viewBox="0 0 900 899.99999" height="1200" preserveAspectRatio="xMidYMid meet" version="1.0"><defs><clipPath id="4a3e7cfd68"><path d="M 421.847656 320.597656 L 478.242188 320.597656 L 478.242188 374.464844 L 421.847656 374.464844 Z M 421.847656 320.597656 " clip-rule="nonzero"/></clipPath><clipPath id="f0388f15c8"><path d="M 450 320.597656 C 434.453125 320.597656 421.847656 332.65625 421.847656 347.53125 C 421.847656 362.40625 434.453125 374.464844 450 374.464844 C 465.546875 374.464844 478.152344 362.40625 478.152344 347.53125 C 478.152344 332.65625 465.546875 320.597656 450 320.597656 Z M 450 320.597656 " clip-rule="nonzero"/></clipPath><clipPath id="3bc2069b2c"><path d="M 0.847656 0.597656 L 57.242188 0.597656 L 57.242188 54.464844 L 0.847656 54.464844 Z M 0.847656 0.597656 " clip-rule="nonzero"/></clipPath><clipPath id="5668f38aa4"><path d="M 29 0.597656 C 13.453125 0.597656 0.847656 12.65625 0.847656 27.53125 C 0.847656 42.40625 13.453125 54.464844 29 54.464844 C 44.546875 54.464844 57.152344 42.40625 57.152344 27.53125 C 57.152344 12.65625 44.546875 0.597656 29 0.597656 Z M 29 0.597656 " clip-rule="nonzero"/></clipPath><clipPath id="31e97f9e9e"><rect x="0" width="58" y="0" height="55"/></clipPath><clipPath id="73eddf1304"><path d="M 425.945312 397.402344 L 475.378906 397.402344 L 475.378906 579.402344 L 425.945312 579.402344 Z M 425.945312 397.402344 " clip-rule="nonzero"/></clipPath><clipPath id="a092ec4f78"><path d="M 0.945312 0.402344 L 50.378906 0.402344 L 50.378906 182.402344 L 0.945312 182.402344 Z M 0.945312 0.402344 " clip-rule="nonzero"/></clipPath><clipPath id="3333f164ef"><rect x="0" width="51" y="0" height="183"/></clipPath></defs><g clip-path="url(#4a3e7cfd68)"><g clip-path="url(#f0388f15c8)"><g transform="matrix(1, 0, 0, 1, 421, 320)"><g clip-path="url(#31e97f9e9e)"><g clip-path="url(#3bc2069b2c)"><g clip-path="url(#5668f38aa4)"><path fill="#5e17eb" d="M 0.847656 0.597656 L 57.242188 0.597656 L 57.242188 54.464844 L 0.847656 54.464844 Z M 0.847656 0.597656 " fill-opacity="1" fill-rule="nonzero"/></g></g></g></g></g></g><g clip-path="url(#73eddf1304)"><g transform="matrix(1, 0, 0, 1, 425, 397)"><g clip-path="url(#3333f164ef)"><g clip-path="url(#a092ec4f78)"><path fill="#ffffff" d="M 0.945312 0.402344 L 50.378906 0.402344 L 50.378906 182.496094 L 0.945312 182.496094 Z M 0.945312 0.402344 " fill-opacity="1" fill-rule="nonzero"/></g></g></g></g></svg>