<svg xmlns="http://www.w3.org/2000/svg" xmlns:xlink="http://www.w3.org/1999/xlink" width="1200" zoomAndPan="magnify" viewBox="0 0 900 899.99999" height="1200" preserveAspectRatio="xMidYMid meet" version="1.0"><defs><g/><clipPath id="1eded8bb7e"><rect x="0" width="599" y="0" height="409"/></clipPath><clipPath id="478755bf8e"><path d="M 660.894531 296.703125 L 717.289062 296.703125 L 717.289062 350.574219 L 660.894531 350.574219 Z M 660.894531 296.703125 " clip-rule="nonzero"/></clipPath><clipPath id="074dc2a786"><path d="M 689.046875 296.703125 C 673.5 296.703125 660.894531 308.761719 660.894531 323.636719 C 660.894531 338.511719 673.5 350.574219 689.046875 350.574219 C 704.59375 350.574219 717.199219 338.511719 717.199219 323.636719 C 717.199219 308.761719 704.59375 296.703125 689.046875 296.703125 Z M 689.046875 296.703125 " clip-rule="nonzero"/></clipPath><clipPath id="5a87e11853"><path d="M 0.894531 0.703125 L 57.289062 0.703125 L 57.289062 54.574219 L 0.894531 54.574219 Z M 0.894531 0.703125 " clip-rule="nonzero"/></clipPath><clipPath id="fd284a479c"><path d="M 29.046875 0.703125 C 13.5 0.703125 0.894531 12.761719 0.894531 27.636719 C 0.894531 42.511719 13.5 54.574219 29.046875 54.574219 C 44.59375 54.574219 57.199219 42.511719 57.199219 27.636719 C 57.199219 12.761719 44.59375 0.703125 29.046875 0.703125 Z M 29.046875 0.703125 " clip-rule="nonzero"/></clipPath><clipPath id="5eb013e7e5"><rect x="0" width="58" y="0" height="55"/></clipPath></defs><g transform="matrix(1, 0, 0, 1, 137, 228)"><g clip-path="url(#1eded8bb7e)"><g fill="#ffffff" fill-opacity="1"><g transform="translate(0.963421, 326.06083)"><g><path d="M 21.234375 0 L 21.234375 -245.25 L 117.1875 -245.25 C 135.738281 -245.25 151.597656 -241.765625 164.765625 -234.796875 C 177.929688 -227.828125 188 -218.171875 194.96875 -205.828125 C 201.9375 -193.484375 205.421875 -179.191406 205.421875 -162.953125 C 205.421875 -146.710938 201.878906 -132.445312 194.796875 -120.15625 C 187.722656 -107.863281 177.546875 -98.257812 164.265625 -91.34375 C 150.984375 -84.4375 134.960938 -80.984375 116.203125 -80.984375 L 53.171875 -80.984375 L 53.171875 -121.96875 L 109.453125 -121.96875 C 119.328125 -121.96875 127.582031 -123.691406 134.21875 -127.140625 C 140.863281 -130.597656 145.832031 -135.398438 149.125 -141.546875 C 152.414062 -147.691406 154.0625 -154.828125 154.0625 -162.953125 C 154.0625 -171.179688 152.414062 -178.3125 149.125 -184.34375 C 145.832031 -190.382812 140.863281 -195.101562 134.21875 -198.5 C 127.582031 -201.90625 119.273438 -203.609375 109.296875 -203.609375 L 71.59375 -203.609375 L 71.59375 0 Z M 21.234375 0 "/></g></g></g><g fill="#ffffff" fill-opacity="1"><g transform="translate(213.944642, 326.06083)"><g><path d="M 102.21875 3.625 C 83.894531 3.625 68.007812 -0.296875 54.5625 -8.140625 C 41.125 -15.992188 30.753906 -26.96875 23.453125 -41.0625 C 16.160156 -55.164062 12.515625 -71.546875 12.515625 -90.203125 C 12.515625 -109.078125 16.160156 -125.5625 23.453125 -139.65625 C 30.753906 -153.757812 41.125 -164.734375 54.5625 -172.578125 C 68.007812 -180.421875 83.894531 -184.34375 102.21875 -184.34375 C 120.425781 -184.34375 136.25 -180.421875 149.6875 -172.578125 C 163.132812 -164.734375 173.503906 -153.757812 180.796875 -139.65625 C 188.097656 -125.5625 191.75 -109.078125 191.75 -90.203125 C 191.75 -71.546875 188.097656 -55.164062 180.796875 -41.0625 C 173.503906 -26.96875 163.132812 -15.992188 149.6875 -8.140625 C 136.25 -0.296875 120.425781 3.625 102.21875 3.625 Z M 102.21875 -35.21875 C 110.769531 -35.21875 117.984375 -37.578125 123.859375 -42.296875 C 129.734375 -47.015625 134.203125 -53.515625 137.265625 -61.796875 C 140.335938 -70.085938 141.875 -79.609375 141.875 -90.359375 C 141.875 -101.222656 140.335938 -110.769531 137.265625 -119 C 134.203125 -127.226562 129.734375 -133.703125 123.859375 -138.421875 C 117.984375 -143.140625 110.769531 -145.5 102.21875 -145.5 C 93.65625 -145.5 86.410156 -143.140625 80.484375 -138.421875 C 74.554688 -133.703125 70.082031 -127.226562 67.0625 -119 C 64.050781 -110.769531 62.546875 -101.222656 62.546875 -90.359375 C 62.546875 -79.609375 64.050781 -70.085938 67.0625 -61.796875 C 70.082031 -53.515625 74.53125 -47.015625 80.40625 -42.296875 C 86.28125 -37.578125 93.550781 -35.21875 102.21875 -35.21875 Z M 102.21875 -35.21875 "/></g></g></g><g fill="#ffffff" fill-opacity="1"><g transform="translate(418.202687, 326.06083)"><g><path d="M 69.296875 -245.25 L 69.296875 0 L 20.25 0 L 20.25 -245.25 Z M 69.296875 -245.25 "/></g></g></g><g fill="#ffffff" fill-opacity="1"><g transform="translate(507.740455, 326.06083)"><g><path d="M 20.25 0 L 20.25 -181.71875 L 69.296875 -181.71875 L 69.296875 0 Z M 44.765625 -205.25 C 37.203125 -205.25 30.757812 -207.71875 25.4375 -212.65625 C 20.113281 -217.59375 17.453125 -223.628906 17.453125 -230.765625 C 17.453125 -237.898438 20.113281 -243.9375 25.4375 -248.875 C 30.757812 -253.8125 37.203125 -256.28125 44.765625 -256.28125 C 52.335938 -256.28125 58.757812 -253.8125 64.03125 -248.875 C 69.300781 -243.9375 71.9375 -237.898438 71.9375 -230.765625 C 71.9375 -223.628906 69.300781 -217.59375 64.03125 -212.65625 C 58.757812 -207.71875 52.335938 -205.25 44.765625 -205.25 Z M 44.765625 -205.25 "/></g></g></g></g></g><g clip-path="url(#478755bf8e)"><g clip-path="url(#074dc2a786)"><g transform="matrix(1, 0, 0, 1, 660, 296)"><g clip-path="url(#5eb013e7e5)"><g clip-path="url(#5a87e11853)"><g clip-path="url(#fd284a479c)"><path fill="#5e17eb" d="M 0.894531 0.703125 L 57.289062 0.703125 L 57.289062 54.574219 L 0.894531 54.574219 Z M 0.894531 0.703125 " fill-opacity="1" fill-rule="nonzero"/></g></g></g></g></g></g></svg>